<?xml version="1.0" encoding="UTF-8"?>
<svg width="752pt" height="752pt" version="1.1" viewBox="0 0 752 752" xmlns="http://www.w3.org/2000/svg">
 <g>
  <path d="m427.15 304.96h-215.95c-18.941 0-34.098 15.156-34.098 34.098v216.43c0 18.469 15.156 34.098 34.098 34.098h216.43c18.469 0 34.098-15.156 34.098-34.098v-216.43c-0.47266-18.945-15.629-34.098-34.57-34.098zm5.6836 250.05c0 2.8398-2.3672 5.2109-5.2109 5.2109l-216.43-0.003906c-2.8398 0-5.2109-2.3672-5.2109-5.2109v-215.95c0-2.8398 2.3672-5.2109 5.2109-5.2109h216.43c2.8398 0 5.2109 2.3672 5.2109 5.2109z"/>
  <path d="m540.81 162.89h-215.95c-18.941 0-34.098 15.156-34.098 34.098v79.562h28.414v-79.562c0-2.8398 2.3672-5.2109 5.2109-5.2109h216.43c2.8398 0 5.2109 2.3672 5.2109 5.2109v216.43c0 2.8398-2.3672 5.2109-5.2109 5.2109h-51.148v28.414h51.148c18.469 0 34.098-15.156 34.098-34.098v-215.95c0-18.945-15.156-34.098-34.098-34.098z"/>
 </g>
</svg>
